<?xml version="1.0" encoding="utf-8"?>
<!-- Generator: Adobe Illustrator 25.4.1, SVG Export Plug-In . SVG Version: 6.00 Build 0)  -->
<svg version="1.1" id="Layer_1" xmlns="http://www.w3.org/2000/svg" xmlns:xlink="http://www.w3.org/1999/xlink" x="0px" y="0px"
	 viewBox="0 0 820 282" style="enable-background:new 0 0 820 282;" xml:space="preserve">
<style type="text/css">
	.st0{fill:none;stroke:#6CC28D;stroke-width:4;stroke-miterlimit:10;}
	.st1{fill:none;stroke:#E1593F;stroke-width:4;stroke-linecap:round;stroke-miterlimit:10;}
</style>
<path class="st0" d="M39.4,25.1h756.8c7.6,0,13.8,6.2,13.8,13.8v221.8c0,7.6-6.2,13.8-13.8,13.8H39.4c-7.6,0-13.8-6.2-13.8-13.8
	V38.9C25.6,31.3,31.8,25.1,39.4,25.1z"/>
<path class="st0" d="M23.8,9.5h756.8c7.6,0,13.8,6.2,13.8,13.8v221.8c0,7.6-6.2,13.8-13.8,13.8H23.8c-7.6,0-13.8-6.2-13.8-13.8V23.3
	C10,15.7,16.2,9.5,23.8,9.5z"/>
<path class="st1" d="M130.5,97.3L130.5,97.3c0-3.7,3-6.7,6.7-6.7l0,0h26.9c1.6,0,2.9,1.3,2.9,2.9v0.1l0,0
	c-1.1,20.2-18.3,35.7-38.5,34.6c-20.2-1.1-35.7-18.3-34.6-38.5c1-20.2,18.2-35.7,38.4-34.7c6.6,0.3,12.9,2.5,18.4,6.1
	c2.3,1.6,2.8,4.7,1.3,7c-0.2,0.3-0.4,0.6-0.7,0.8l0,0c-1.7,1.6-4.3,1.8-6.3,0.5c-12.3-8.1-28.8-4.7-36.9,7.5
	c-8.1,12.3-4.7,28.8,7.5,36.9c12.3,8.1,28.8,4.7,36.9-7.5c1.1-1.6,2-3.4,2.7-5.2"/>
<path class="st1" d="M220.1,115.5l3.7,9.5c0.8,2.5,3.5,3.8,6,3c0.1,0,0.2-0.1,0.3-0.1l0,0c2-1,2.8-3.3,2-5.3l-24.4-62.9
	c-1.2-3.6-5-5.5-8.6-4.3c-2,0.7-3.6,2.3-4.3,4.3l-24.4,62.9c-0.8,2,0,4.4,2,5.3l0,0c2.4,1,5.2-0.1,6.2-2.5c0-0.1,0.1-0.2,0.1-0.3
	l5.4-14c0.8-2.1,2.7-3.5,5-3.6H211c2.8,0,4.7-3.1,3.6-5.8l-2.1-5.5L204.8,76c-0.6-1.9-2.7-2.9-4.6-2.3c-1.1,0.4-1.9,1.2-2.3,2.3
	l-6.5,16.9c-0.2,0.4-0.3,0.9-0.2,1.4c0,1.8,1.5,3.2,3.2,3.2h8.1"/>
<path class="st1" d="M253.3,97.1V123c0,2.8-2.2,5-5,5l0,0c-2.8,0-5-2.2-5-5V70.9c0-0.9,0.8-1.6,1.7-1.6c0.5,0,1,0.3,1.3,0.7
	l15.8,25.3c3.2,5.2,10.1,6.9,15.4,3.6c1.5-0.9,2.7-2.2,3.6-3.6l5.8-9.3c0.5-0.7,1.6-0.9,2.3-0.4c0.4,0.3,0.7,0.8,0.7,1.3V123
	c0,2.8,2.2,5,5,5l0,0c2.8,0,5-2.2,5-5V57.4c0-1.5-1.2-2.8-2.8-2.8c-0.8,0-1.7,0.4-2.2,1l-21.4,34c-0.7,1.1-2.1,1.4-3.2,0.7
	c-0.3-0.2-0.5-0.4-0.7-0.7l-21.4-34"/>
<path class="st1" d="M333.5,86.1h7.3c3.4,0,6.1,2.7,6.1,6.1l0,0l0,0c0,2.9-2.4,5.3-5.3,5.3h-15c-2.9,0-5.3-2.4-5.3-5.3V73
	c0-4,3.3-7.3,7.3-7.3l0,0h20.3c2.9,0,5.3-2.4,5.3-5.3l0,0c0-2.9-2.4-5.3-5.3-5.3H319c-4.4,0-8,3.6-8.1,8v57.1c0,4.5,3.6,8.1,8.1,8.1
	l0,0h30c2.9,0,5.3-2.4,5.3-5.3v-0.8c0-2.9-2.4-5.3-5.3-5.3h-20.3c-4,0-7.3-3.3-7.3-7.3l0,0v-3.4"/>
<path class="st1" d="M498.3,86.1h7.3c3.4,0,6.1,2.7,6.1,6.1l0,0l0,0c0,2.9-2.4,5.3-5.3,5.3h-15c-2.9,0-5.3-2.4-5.3-5.3V73
	c0-4,3.3-7.3,7.3-7.3l0,0h20.3c2.9,0,5.3-2.4,5.3-5.3l0,0c0-2.9-2.4-5.3-5.3-5.3h-29.9c-4.5,0-8.1,3.6-8.1,8.1l0,0v57.1
	c0,4.5,3.6,8.1,8.1,8.1l0,0h29.9c2.9,0,5.3-2.4,5.3-5.3v-0.8c0-2.9-2.4-5.3-5.3-5.3h-20.2c-4,0-7.3-3.3-7.3-7.3l0,0v-3.4"/>
<path class="st1" d="M434.9,118.4h3.7c8.1,0,12.8-8.5,14.7-18.6c1-6.8,1-13.8,0-20.6c-1.5-8-6.6-13.6-14.7-13.6h-8.3
	c-7.3,0-7.3,0.2-7.3,7.3v47.2c0,4.5,3.6,8.1,8.1,8.1l0,0h6.9l0,0c14,0,23-11.6,25.4-25.4c1.1-7.6,1.1-15.3,0-22.9
	C461,66.1,451.9,54.5,438,54.5h-17.4c-4.5,0-8.1,3.6-8.1,8.1l0,0v65.6"/>
<path class="st1" d="M561.8,129.9l1.3-4.6l17.8-64.2c0.7-2.5-0.8-5.1-3.3-5.8h-0.1l0,0c-2.5-0.6-4.9,0.9-5.6,3.3l-17.4,62.9
	l-1.2,4.3c-0.4,1.5-1.8,2.5-3.3,2.5l0,0c-1.5,0-2.8-1-3.2-2.5L529,61.4c-0.7-2.7,0.8-5.5,3.5-6.2l0,0c2.7-0.7,5.5,0.8,6.2,3.5l0,0
	l9.5,34.5"/>
<path class="st1" d="M269.9,219.1l3.7,9.5c0.8,2.5,3.5,3.8,6,3c0.1,0,0.3-0.1,0.4-0.1l0,0c2-1,2.8-3.3,2-5.3l-24.4-62.9
	c-1.2-3.6-5-5.5-8.6-4.3c-2,0.7-3.6,2.3-4.3,4.3l-24.4,62.9c-0.8,2,0,4.4,2,5.3l0,0c2.4,1,5.2-0.1,6.2-2.5c0-0.1,0.1-0.2,0.1-0.3
	l5.4-14c0.8-2.1,2.7-3.5,5-3.6h21.9c2.8,0,4.7-3.1,3.6-5.8l-2.1-5.5l-7.8-20.2c-0.6-1.9-2.7-2.9-4.6-2.3c-1.1,0.4-1.9,1.2-2.3,2.3
	l-6.5,16.9c-0.2,0.4-0.3,0.9-0.2,1.4c0,1.8,1.5,3.2,3.2,3.2h8.1"/>
<path class="st1" d="M198.7,209.7v17.4c0,2.9,2.4,5.3,5.3,5.3l0,0l0,0c2.9,0,5.3-2.4,5.3-5.3l0,0v-63.3c0-2.9-2.4-5.3-5.3-5.3l0,0
	l0,0c-2.9,0-5.3,2.4-5.3,5.3l0,0l0,0c0,3.9-0.4,7.7-1.3,11.5c-1.5,6.3-4.6,15-10.6,18.8c-7,4.4-11.2,12.2-11,20.5v12.5
	c0,2.9-2.4,5.3-5.3,5.3l0,0l0,0c-2.9,0-5.3-2.4-5.3-5.3l0,0v-63.3c0-2.9,2.4-5.3,5.3-5.3l0,0l0,0c2.9,0,5.3,2.4,5.3,5.3l0,0v13.3"/>
<path class="st1" d="M398.8,176.4l-8.8-15.3c-1.1-2-3.7-2.7-5.7-1.6l0,0l-0.6,0.4c-2,1.2-2.7,3.7-1.6,5.7l15.4,27.4
	c0.4,0.6,0.5,1.3,0.5,2.1v32.6c0,2.3,1.9,4.2,4.2,4.2h0.1h0.9c2.3-0.1,4.1-1.9,4.1-4.2l0.3-38.6c0-3.6,1.1-7.2,3-10.3l11-17.5
	c1.2-2,3.7-2.7,5.7-1.6c0,0,0,0,0.1,0l0,0c2,1.2,2.6,3.7,1.5,5.7l-0.1,0.2l-11.9,20.6"/>
<path class="st1" d="M312.7,172.8c3.2,0,5.8,2.6,5.8,5.8l0,0c0,4.4-3.6,8-8,8h-6.4c-1.5,0-2.8-1.2-2.8-2.8V162c0-1.2,1-2.2,2.2-2.2
	l0,0h10.3c7.3,0,14.2,7,14.2,14.2v5c0,10.2-9.3,18.3-19.3,18.3H304c-1.5,0-2.8,1.2-2.8,2.8v27.1c0,2.5-2,4.5-4.5,4.5l0,0l0,0
	c-2.5,0-4.5-2-4.5-4.5l0,0v-67.4"/>
<path class="st1" d="M359.2,172.8c3.2,0,5.8,2.6,5.8,5.8l0,0c0,4.4-3.6,8-8,8h-6.4c-1.5,0-2.8-1.2-2.8-2.8V162c0-1.2,1-2.2,2.2-2.2
	l0,0h10.3c7.3,0,14.2,7,14.2,14.2v5c0,10.2-9.3,18.3-19.3,18.3h-4.7c-1.5,0-2.8,1.2-2.8,2.8v27.1c0,2.5-2,4.5-4.5,4.5l0,0l0,0
	c-2.5,0-4.5-2-4.5-4.5l0,0v-67.4"/>
<path class="st1" d="M519.9,209.7v17.4c0,2.9,2.4,5.3,5.3,5.3l0,0l0,0c2.9,0,5.3-2.4,5.3-5.3l0,0v-63.3c0-2.9-2.4-5.3-5.3-5.3l0,0
	l0,0c-2.9,0-5.3,2.4-5.3,5.3l0,0l0,0c0,3.9-0.4,7.7-1.3,11.5c-1.5,6.3-4.6,15-10.7,18.8c-7,4.4-11.2,12.2-11,20.5v12.5
	c0,2.9-2.4,5.3-5.3,5.3l0,0l0,0c-2.9,0-5.3-2.4-5.3-5.3l0,0v-63.3c0-2.9,2.4-5.3,5.3-5.3l0,0l0,0c2.9,0,5.3,2.4,5.3,5.3l0,0v13.3"/>
<path class="st1" d="M599.7,211.8c9-12.1,6.4-29.2-5.8-38.2c-12.1-9-29.2-6.4-38.2,5.8c-9,12.1-6.4,29.2,5.8,38.2
	c7.2,5.3,16.5,6.7,24.9,3.9c1.9-0.6,4,0,5.2,1.6l0,0c1.5,2,1.1,4.9-0.9,6.5c-0.4,0.3-0.8,0.5-1.3,0.7c-19.2,6.5-39.9-3.8-46.4-23
	s3.8-39.9,23-46.4s39.9,3.8,46.4,23c4.1,12.3,1.5,25.8-6.9,35.6"/>
<path class="st1" d="M645.2,221.7c-5.6,0-11.6-4.5-11.6-10.1v-47.4c0-2.5-2-4.5-4.5-4.5l0,0c-2.5,0-4.5,2-4.5,4.5v48.2
	c0,11.3,9.2,20.5,20.5,20.5l0,0l0,0c9.5,0,17.2-7.7,17.2-17.2V164c0-2.4,2-4.4,4.4-4.4l0,0c2.4,0,4.4,1.9,4.4,4.4l0,0v50.4
	c0,4.9-1.3,10.4-4.5,13.6"/>
<path class="st1" d="M703.1,183.8h7.9c3.5,0,6.2-2.8,6.2-6.2v-2.7c0-3.5-2.8-6.2-6.2-6.2h-13.5c-3,0-5.5,2.5-5.5,5.5v53.1
	c0,2.6-2.1,4.7-4.6,4.7l0,0c-2.6,0-4.8-2-4.8-4.6v-0.1v-58.9c0-5.3,4.3-9.6,9.6-9.6h18.4c9.8,0,17.7,7.9,17.8,17.7l0,0l0,0
	c0,9.8-7.9,17.7-17.7,17.7h-1.9c-4.5,0-7.2,3.8-4.8,7.6l16.9,27.8c1.1,1.9,3.6,2.5,5.5,1.3c0.1-0.1,0.2-0.1,0.3-0.2l0,0
	c1.7-1.2,2.1-3.6,1-5.4L714,202.7"/>
</svg>
