<svg id="Layer_1" data-name="Layer 1" xmlns="http://www.w3.org/2000/svg" viewBox="0 0 500 500"><defs><style>.cls-1{fill:#28282a;}.cls-2{fill:#6cc28d;}.cls-3{fill:#e1593f;}</style></defs><title>GameDevHappyHour_Logo_Square</title><rect class="cls-1" width="500" height="500"/><path class="cls-2" d="M460.71,323.38H47.79a8.62,8.62,0,0,1-8.61-8.61v-121a8.62,8.62,0,0,1,8.61-8.61H460.71a8.62,8.62,0,0,1,8.61,8.61v121A8.62,8.62,0,0,1,460.71,323.38ZM47.79,187.31a6.44,6.44,0,0,0-6.43,6.43v121a6.44,6.44,0,0,0,6.43,6.43H460.71a6.44,6.44,0,0,0,6.43-6.43v-121a6.44,6.44,0,0,0-6.43-6.43Z"/><path class="cls-2" d="M452.21,314.87H39.29a8.62,8.62,0,0,1-8.61-8.61v-121a8.62,8.62,0,0,1,8.61-8.61H452.21a8.62,8.62,0,0,1,8.61,8.61v121A8.62,8.62,0,0,1,452.21,314.87ZM39.29,178.8a6.44,6.44,0,0,0-6.43,6.43v121a6.44,6.44,0,0,0,6.43,6.43H452.21a6.44,6.44,0,0,0,6.43-6.43v-121a6.44,6.44,0,0,0-6.43-6.43Z"/><path class="cls-3" d="M97.47,243.73a21.25,21.25,0,0,1-15.3-6.52,21,21,0,0,1-5.85-16.07A21.24,21.24,0,0,1,95.8,201.38a21,21,0,0,1,13.44,3.52,3.88,3.88,0,0,1,1.71,2.92,4,4,0,0,1-6.17,3.6,13.3,13.3,0,1,0,5.11,15.82,1.23,1.23,0,1,1,2.3.87,15.76,15.76,0,1,1-6-18.74,1.53,1.53,0,0,0,1.9-.12,1.51,1.51,0,0,0,.47-1.23,1.42,1.42,0,0,0-.63-1.08,18.75,18.75,0,0,0-23.94,28.57,18.73,18.73,0,0,0,32.23-12,.34.34,0,0,0-.09-.25.33.33,0,0,0-.25-.11H101.16a2.44,2.44,0,0,0-2.44,2.44,1.23,1.23,0,0,1-1.23,1.23h0a1.23,1.23,0,0,1-1.23-1.23,4.89,4.89,0,0,1,4.89-4.9h14.66a2.8,2.8,0,0,1,2.79,2.94,21.25,21.25,0,0,1-20.68,20.1Z"/><path class="cls-3" d="M121.43,243.73a3.7,3.7,0,0,1-1.51-.33,3.53,3.53,0,0,1-1.75-4.48l13.32-34.3a5,5,0,0,1,4.65-3.3h0a5,5,0,0,1,4.66,3.3l13.32,34.31a3.53,3.53,0,0,1-1.75,4.48,3.68,3.68,0,0,1-2.93,0,4,4,0,0,1-2.18-2.26l-2-5.19a1.23,1.23,0,0,1,2.29-.89l2,5.19a1.52,1.52,0,0,0,.83.88,1.23,1.23,0,0,0,1,0,1.06,1.06,0,0,0,.47-1.35l-13.32-34.3a2.53,2.53,0,0,0-2.37-1.74h0a2.52,2.52,0,0,0-2.36,1.74l-13.32,34.3a1.06,1.06,0,0,0,.47,1.35,1.23,1.23,0,0,0,1,0,1.52,1.52,0,0,0,.83-.88l3-7.63a4.17,4.17,0,0,1,3.87-2.74h11.93a.85.85,0,0,0,.69-.39,1.2,1.2,0,0,0,.12-1.11l-5.43-14a.78.78,0,0,0-.74-.57h0a.78.78,0,0,0-.73.57l-3.56,9.19a.8.8,0,0,0-.05.3.56.56,0,0,0,.54.55h4.41a1.23,1.23,0,0,1,0,2.46h-4.41a3,3,0,0,1-3-3,3.26,3.26,0,0,1,.22-1.21l3.56-9.19a3.26,3.26,0,0,1,3-2.13h0a3.26,3.26,0,0,1,3,2.13l5.43,14a3.65,3.65,0,0,1-.38,3.39,3.27,3.27,0,0,1-2.72,1.46H129.57a1.74,1.74,0,0,0-1.58,1.17l-3,7.63a4,4,0,0,1-2.18,2.26A3.7,3.7,0,0,1,121.43,243.73Z"/><path class="cls-3" d="M187.2,243.62a4,4,0,0,1-4-4V221.11l-2.54,4.08a7.32,7.32,0,0,1-12.43,0l-8-12.84v27.32a1.49,1.49,0,1,0,3,0V225.52a1.23,1.23,0,0,1,2.46,0v14.15a3.95,3.95,0,1,1-7.9,0V211.2a2.12,2.12,0,0,1,3.93-1.12l8.59,13.82a4.86,4.86,0,0,0,8.26,0l3.15-5.06A2.12,2.12,0,0,1,185.7,220v19.71a1.49,1.49,0,1,0,3,0V203.82a.26.26,0,0,0-.19-.27.25.25,0,0,0-.28.06l-11.62,18.47a2.48,2.48,0,0,1-4.2,0l-11.67-18.54a1.23,1.23,0,0,1,2.08-1.31l11.67,18.54,11.79-18.65a2.74,2.74,0,0,1,4.88,1.71v35.86A4,4,0,0,1,187.2,243.62Z"/><path class="cls-3" d="M216.69,243.73H200.38a5.64,5.64,0,0,1-5.63-5.63V207a5.64,5.64,0,0,1,5.63-5.63h16.31a4.12,4.12,0,0,1,0,8.24H205.63a2.78,2.78,0,0,0-2.77,2.78V222.8a1.66,1.66,0,0,0,1.66,1.66h8.18a1.66,1.66,0,0,0,1.66-1.66,2.09,2.09,0,0,0-2.08-2.09h-4a1.23,1.23,0,0,1,0-2.46h4a4.55,4.55,0,0,1,4.54,4.54,4.12,4.12,0,0,1-4.12,4.12h-8.18a4.12,4.12,0,0,1-4.12-4.12V212.33a5.23,5.23,0,0,1,5.23-5.23h11.06a1.66,1.66,0,0,0,0-3.32H200.38a3.18,3.18,0,0,0-3.17,3.18V238.1a3.18,3.18,0,0,0,3.17,3.18h16.31a1.66,1.66,0,0,0,1.66-1.66v-.43a1.66,1.66,0,0,0-1.66-1.66H205.63a5.24,5.24,0,0,1-5.23-5.23v-1.83a1.23,1.23,0,0,1,2.46,0v1.83a2.78,2.78,0,0,0,2.77,2.78h11.06a4.12,4.12,0,0,1,4.12,4.12v.43A4.12,4.12,0,0,1,216.69,243.73Z"/><path class="cls-3" d="M306.59,243.73h-16.3a5.64,5.64,0,0,1-5.63-5.63V207a5.64,5.64,0,0,1,5.63-5.63h16.3a4.12,4.12,0,0,1,0,8.24H295.53a2.78,2.78,0,0,0-2.77,2.78V222.8a1.66,1.66,0,0,0,1.66,1.66h8.18a1.66,1.66,0,0,0,1.66-1.66,2.09,2.09,0,0,0-2.08-2.09h-4a1.23,1.23,0,0,1,0-2.46h4a4.55,4.55,0,0,1,4.54,4.54,4.12,4.12,0,0,1-4.12,4.12h-8.18a4.12,4.12,0,0,1-4.12-4.12V212.33a5.23,5.23,0,0,1,5.23-5.23h11.06a1.66,1.66,0,0,0,0-3.32h-16.3a3.18,3.18,0,0,0-3.17,3.18V238.1a3.18,3.18,0,0,0,3.17,3.18h16.3a1.66,1.66,0,0,0,1.66-1.66v-.43a1.66,1.66,0,0,0-1.66-1.66H295.53a5.23,5.23,0,0,1-5.23-5.23v-1.83a1.23,1.23,0,0,1,2.46,0v1.83a2.78,2.78,0,0,0,2.77,2.78h11.06a4.12,4.12,0,0,1,4.12,4.12v.43A4.12,4.12,0,0,1,306.59,243.73Z"/><path class="cls-3" d="M265.26,243.68l-3.79,0a5.63,5.63,0,0,1-5.62-5.63l0-25.75c0-4.64.59-5.23,5.23-5.23h4.54c4.77,0,8.22,3.15,9.25,8.44a39.57,39.57,0,0,1,0,11.71c-1.36,7.08-4.73,11.15-9.25,11.15h-2a1.23,1.23,0,0,1,0-2.46h2c4.58,0,6.31-6.4,6.84-9.16a37.08,37.08,0,0,0,0-10.78c-.79-4.1-3.29-6.45-6.84-6.45h-4.54a9.94,9.94,0,0,0-2.63.18,11.05,11.05,0,0,0-.14,2.59l0,25.75a3.18,3.18,0,0,0,3.17,3.18l3.79,0c7.68,0,11.61-6.92,12.64-12.84a44.16,44.16,0,0,0,0-12.07c-1.62-9.48-7.82-12.84-12.64-12.84h-9.45a3.18,3.18,0,0,0-3.17,3.18v35.8a1.23,1.23,0,1,1-2.46,0v-35.8a5.64,5.64,0,0,1,5.63-5.63h9.45c7.49,0,13.55,6,15.06,14.88a46.37,46.37,0,0,1,0,12.9C278.76,237.84,272.84,243.68,265.26,243.68Z"/><path class="cls-3" d="M332.83,244.62a1.23,1.23,0,0,1-1.18-1.56L342,205.53a1.32,1.32,0,1,0-2.55-.71l-10.15,36.63a3.09,3.09,0,0,1-3,2.26h0a3.1,3.1,0,0,1-3-2.26l-9.74-35.15a4,4,0,1,1,7.69-2.13L326.55,223a1.23,1.23,0,1,1-2.37.65L319,204.83a1.53,1.53,0,1,0-3,.82l9.74,35.15a.63.63,0,0,0,.6.46h0a.63.63,0,0,0,.6-.46l10.15-36.63a3.78,3.78,0,1,1,7.28,2L334,243.72A1.23,1.23,0,0,1,332.83,244.62Z"/><path class="cls-3" d="M178,300.22a3.71,3.71,0,0,1-1.41-.28,4,4,0,0,1-2.18-2.26l-2-5.19a1.23,1.23,0,1,1,2.29-.89l2,5.19a1.52,1.52,0,0,0,.83.88,1.23,1.23,0,0,0,1,0,1.06,1.06,0,0,0,.47-1.35L165.69,262a2.53,2.53,0,0,0-2.37-1.74h0A2.52,2.52,0,0,0,161,262l-13.32,34.31a1.06,1.06,0,0,0,.47,1.35,1.23,1.23,0,0,0,1,0,1.52,1.52,0,0,0,.83-.88l3-7.63a4.17,4.17,0,0,1,3.87-2.74h11.93a.85.85,0,0,0,.69-.39,1.2,1.2,0,0,0,.12-1.11l-5.43-14a.78.78,0,0,0-.74-.57h0a.78.78,0,0,0-.73.57L159,280.1a.82.82,0,0,0-.05.3.56.56,0,0,0,.54.55h4.41a1.23,1.23,0,0,1,0,2.46h-4.41a3,3,0,0,1-3-3,3.27,3.27,0,0,1,.22-1.21L160.3,270a3.26,3.26,0,0,1,3-2.13h0a3.26,3.26,0,0,1,3,2.13l5.43,14a3.65,3.65,0,0,1-.38,3.39,3.26,3.26,0,0,1-2.72,1.46H156.75a1.74,1.74,0,0,0-1.58,1.17l-3,7.63a4,4,0,0,1-2.18,2.26,3.68,3.68,0,0,1-2.93,0,3.53,3.53,0,0,1-1.76-4.48l13.32-34.31a5,5,0,0,1,4.65-3.3h0a5,5,0,0,1,4.66,3.3l13.32,34.31a3.53,3.53,0,0,1-1.75,4.48A3.7,3.7,0,0,1,178,300.22Z"/><path class="cls-3" d="M137.6,300.52a4.1,4.1,0,0,1-4.1-4.1v-9.47a1.23,1.23,0,1,1,2.46,0v9.47a1.64,1.64,0,1,0,3.28,0V261.91a1.64,1.64,0,1,0-3.28,0,28.15,28.15,0,0,1-.75,6.54c-.9,3.75-2.72,8.71-6.35,11a11.67,11.67,0,0,0-5.44,10.17v6.8a4.1,4.1,0,1,1-8.19,0V261.91a4.1,4.1,0,1,1,8.19,0v7.23a1.23,1.23,0,0,1-2.46,0v-7.23a1.64,1.64,0,1,0-3.28,0v34.51a1.64,1.64,0,1,0,3.28,0v-6.8a14.12,14.12,0,0,1,6.58-12.25c2.28-1.45,4.16-4.82,5.27-9.5a25.71,25.71,0,0,0,.68-6,4.1,4.1,0,1,1,8.19,0v34.51A4.1,4.1,0,0,1,137.6,300.52Z"/><path class="cls-3" d="M245.76,300.31a3.52,3.52,0,0,1-3.51-3.52V279a1.07,1.07,0,0,0-.14-.52l-8.42-15a3.53,3.53,0,0,1,1.31-4.77l.35-.2a3.52,3.52,0,0,1,4.81,1.3l4.78,8.34a1.23,1.23,0,0,1-2.13,1.22L238,261.06a1.06,1.06,0,0,0-1.45-.39l-.35.2a1.07,1.07,0,0,0-.39,1.44l8.42,15a3.53,3.53,0,0,1,.45,1.73v17.78a1.05,1.05,0,0,0,.32.77,1.07,1.07,0,0,0,.77.3l.48,0a1.06,1.06,0,0,0,1-1.06l.17-21a11.92,11.92,0,0,1,1.83-6.25l6-9.52a3.52,3.52,0,0,1,4.83-1.22,3.54,3.54,0,0,1,1.24,4.78l-6.55,11.36a1.23,1.23,0,0,1-2.13-1.23l6.56-11.36a1.07,1.07,0,0,0-.38-1.44,1.06,1.06,0,0,0-1.47.38l-6,9.56a9.46,9.46,0,0,0-1.45,5l-.17,21a3.5,3.5,0,0,1-3.4,3.51l-.48,0Z"/><path class="cls-3" d="M188.22,300.22a3.71,3.71,0,0,1-3.7-3.71V259.73a1.23,1.23,0,0,1,2.46,0v36.78a1.25,1.25,0,1,0,2.5,0V281.74a2.74,2.74,0,0,1,2.74-2.74h2.57a9.69,9.69,0,0,0,6.5-2.59,8.4,8.4,0,0,0,2.82-6.18V267.5a7,7,0,0,0-6.54-6.55h-5.64l0,11.9a.29.29,0,0,0,.29.29h3.48a3.16,3.16,0,0,0,3.16-3.16A1.94,1.94,0,0,0,196.9,268a1.23,1.23,0,1,1,0-2.46A4.4,4.4,0,0,1,201.3,270a5.61,5.61,0,0,1-5.61,5.62h-3.48a2.74,2.74,0,0,1-2.74-2.74V260.94a2.44,2.44,0,0,1,2.44-2.44h5.64a9.47,9.47,0,0,1,9,9v2.73a10.83,10.83,0,0,1-3.61,8,12.17,12.17,0,0,1-8.16,3.25h-2.57a.27.27,0,0,0-.2.08.28.28,0,0,0-.08.2v14.77A3.71,3.71,0,0,1,188.22,300.22Z"/><path class="cls-3" d="M213.63,300.22a3.71,3.71,0,0,1-3.7-3.71V259.73a1.23,1.23,0,0,1,2.46,0v36.78a1.25,1.25,0,1,0,2.5,0V281.74a2.74,2.74,0,0,1,2.74-2.74h2.57a9.69,9.69,0,0,0,6.5-2.59,8.4,8.4,0,0,0,2.82-6.18V267.5A7,7,0,0,0,223,261h-5.64l0,11.9a.29.29,0,0,0,.29.29h3.48a3.16,3.16,0,0,0,3.16-3.16,1.94,1.94,0,0,0-1.94-1.94,1.23,1.23,0,1,1,0-2.46A4.4,4.4,0,0,1,226.7,270a5.61,5.61,0,0,1-5.61,5.62h-3.48a2.74,2.74,0,0,1-2.74-2.74V260.94a2.44,2.44,0,0,1,2.44-2.44H223a9.47,9.47,0,0,1,9,9v2.73a10.83,10.83,0,0,1-3.61,8,12.17,12.17,0,0,1-8.16,3.25h-2.57a.27.27,0,0,0-.2.08.28.28,0,0,0-.08.2v14.77A3.71,3.71,0,0,1,213.63,300.22Z"/><path class="cls-3" d="M312.8,300.52a4.1,4.1,0,0,1-4.1-4.1v-9.47a1.23,1.23,0,0,1,2.46,0v9.47a1.64,1.64,0,1,0,3.28,0V261.91a1.64,1.64,0,1,0-3.28,0,28.15,28.15,0,0,1-.75,6.54c-.9,3.75-2.72,8.71-6.35,11a11.67,11.67,0,0,0-5.44,10.17v6.8a4.1,4.1,0,1,1-8.19,0V261.91a4.1,4.1,0,1,1,8.19,0v7.23a1.23,1.23,0,0,1-2.46,0v-7.23a1.64,1.64,0,1,0-3.28,0v34.51a1.64,1.64,0,1,0,3.28,0v-6.8a14.12,14.12,0,0,1,6.58-12.25c2.28-1.45,4.16-4.82,5.27-9.5a25.7,25.7,0,0,0,.68-6,4.1,4.1,0,1,1,8.19,0v34.51A4.1,4.1,0,0,1,312.8,300.52Z"/><path class="cls-3" d="M341.44,300.42a21.13,21.13,0,0,1-18.14-10.36,21.37,21.37,0,0,1,4.3-26.88,21,21,0,0,1,16.15-5.07A21.21,21.21,0,0,1,357.55,293a1.23,1.23,0,0,1-1.86-1.6,18.75,18.75,0,0,0-12.21-30.88A18.58,18.58,0,0,0,329.21,265a18.89,18.89,0,0,0-3.8,23.76A18.66,18.66,0,0,0,347.47,297a1.24,1.24,0,0,0,.79-.82,1.31,1.31,0,0,0-.2-1.18,1.28,1.28,0,0,0-1.44-.45,16.16,16.16,0,1,1,7.86-5.72,1.23,1.23,0,1,1-2-1.46A13.69,13.69,0,0,0,334,267.74a13.7,13.7,0,0,0,11.85,24.45,3.74,3.74,0,0,1,4.18,1.3,3.79,3.79,0,0,1,.58,3.39,3.67,3.67,0,0,1-2.35,2.42A21.34,21.34,0,0,1,341.44,300.42Z"/><path class="cls-3" d="M378.25,300.84a12.43,12.43,0,0,1-12.41-12.42v-26.3a3.7,3.7,0,1,1,7.41,0V288c0,2.37,2.78,4.27,5.08,4.27a1.23,1.23,0,0,1,0,2.46c-3.56,0-7.53-2.88-7.53-6.73V262.12a1.25,1.25,0,1,0-2.5,0v26.3a10,10,0,0,0,10,10,8.15,8.15,0,0,0,8.14-8.15V262a3.61,3.61,0,1,1,7.22,0v27.49c0,3.44-1,6.46-2.83,8.3a1.23,1.23,0,0,1-1.76-1.72c1.33-1.36,2.13-3.83,2.13-6.59V262a1.16,1.16,0,1,0-2.31,0v28.21A10.61,10.61,0,0,1,378.25,300.84Z"/><path class="cls-3" d="M401.27,300.26a3.81,3.81,0,0,1-3.8-3.81V264.31a6.46,6.46,0,0,1,6.44-6.45H414a10.9,10.9,0,0,1,0,21.79h-1a2,2,0,0,0-1.75.84,1.42,1.42,0,0,0,.15,1.46l9.24,15.16a1,1,0,0,0,1.4.26,1,1,0,0,0,.25-1.3l-7.44-12.3a1.23,1.23,0,1,1,2.1-1.27l7.43,12.28a3.43,3.43,0,0,1-5.83,3.62l-9.24-15.16a3.8,3.8,0,0,1-.21-3.94,4.33,4.33,0,0,1,3.9-2.1h1a8.44,8.44,0,0,0,0-16.88H403.91a4,4,0,0,0-4,4v32.15a1.34,1.34,0,0,0,.4,1,1.39,1.39,0,0,0,1,.39,1.36,1.36,0,0,0,1.33-1.35v-29a4.24,4.24,0,0,1,4.23-4.23h7.36a4.63,4.63,0,0,1,4.63,4.64v1.48a4.64,4.64,0,0,1-4.64,4.64h-4.3v-2.46h4.3a2.18,2.18,0,0,0,2.18-2.18V267.9a2.18,2.18,0,0,0-2.18-2.18h-7.36a1.78,1.78,0,0,0-1.78,1.78v29a3.82,3.82,0,0,1-3.74,3.81Z"/><path class="cls-3" d="M283.48,411.68a5.4,5.4,0,0,1-3.84-1.59l-14.22-14.22v10.19a5.43,5.43,0,1,1-10.87,0V359.88a5.43,5.43,0,1,1,10.87,0v12.84a1.65,1.65,0,0,1-3.29,0V359.88a2.14,2.14,0,0,0-4.28,0v46.19a2.14,2.14,0,0,0,4.28,0V394.61a2.77,2.77,0,0,1,4.73-2L282,407.76a2.19,2.19,0,0,0,3,0,2.14,2.14,0,0,0,0-3l-18-18a6.58,6.58,0,0,1-.82-8.29l14.36-21.5a5.43,5.43,0,1,1,9,6.09l-12,18a1.65,1.65,0,0,1-2.73-1.85l1.09-1.61,10.94-16.4a2.14,2.14,0,1,0-3.53-2.41l-14.35,21.49a3.28,3.28,0,0,0,.41,4.13l18,18a5.43,5.43,0,0,1-3.84,9.27Z"/><path class="cls-3" d="M239.59,411.69a5.5,5.5,0,0,1-5.5-5.5V393.49a1.65,1.65,0,0,1,3.29,0V406.2a2.2,2.2,0,1,0,4.4,0V359.9a2.2,2.2,0,1,0-4.4,0,37.77,37.77,0,0,1-1,8.77c-1.2,5-3.66,11.69-8.52,14.76a15.66,15.66,0,0,0-7.3,13.65v9.12a5.5,5.5,0,1,1-11,0V359.9a5.5,5.5,0,1,1,11,0v9.71a1.65,1.65,0,0,1-3.29,0V359.9a2.2,2.2,0,1,0-4.4,0v46.3a2.2,2.2,0,1,0,4.4,0v-9.12a18.95,18.95,0,0,1,8.83-16.43c3.06-1.94,5.58-6.47,7.08-12.74a34.5,34.5,0,0,0,.92-8,5.5,5.5,0,1,1,11,0v46.3A5.5,5.5,0,0,1,239.59,411.69Z"/></svg>