<svg id="Layer_1" data-name="Layer 1" xmlns="http://www.w3.org/2000/svg" viewBox="0 0 1000 500"><defs><style>.cls-1{fill:#28282a;}.cls-2,.cls-3{fill:none;stroke-miterlimit:10;stroke-width:4px;}.cls-2{stroke:#6cc28d;}.cls-3{stroke:#e1593f;stroke-linecap:round;}</style></defs><title>GameDevHappyHour_Logo_Full_Colour</title><path class="cls-1" d="M886.21,133.09h-1.79v-1.8a13.83,13.83,0,0,0-13.79-13.79H113.79A13.83,13.83,0,0,0,100,131.29V353.12a13.83,13.83,0,0,0,13.79,13.79h1.79v1.8a13.83,13.83,0,0,0,13.79,13.79H886.21A13.83,13.83,0,0,0,900,368.71V146.88A13.83,13.83,0,0,0,886.21,133.09Z"/><rect class="cls-2" x="115.58" y="133.09" width="784.42" height="249.41" rx="13.79" ry="13.79"/><rect class="cls-2" x="100" y="117.5" width="784.42" height="249.41" rx="13.79" ry="13.79"/><path class="cls-3" d="M220.47,205.26h0a6.72,6.72,0,0,1,6.72-6.73h26.88a2.88,2.88,0,0,1,2.87,3h0a36.6,36.6,0,1,1-16.19-32.35,5,5,0,0,1,.58,7.75h0a5,5,0,0,1-6.26.46,26.64,26.64,0,1,0,10.22,31.68"/><path class="cls-3" d="M310.09,223.53l3.69,9.51a4.74,4.74,0,0,0,6.35,2.83h0a4.2,4.2,0,0,0,2-5.34l-24.42-62.88a6.79,6.79,0,0,0-12.87,0l-24.42,62.88a4.2,4.2,0,0,0,2,5.34h0a4.74,4.74,0,0,0,6.35-2.83l5.42-14a5.42,5.42,0,0,1,5-3.59h21.86c2.78,0,4.66-3.06,3.59-5.83l-2.14-5.5L294.75,184a3.64,3.64,0,0,0-6.89,0l-6.53,16.85a3.75,3.75,0,0,0-.25,1.39,3.28,3.28,0,0,0,3.23,3.24h8.08"/><path class="cls-3" d="M343.31,205.13v25.94a5,5,0,0,1-5,5h0a5,5,0,0,1-5-5V178.88a1.65,1.65,0,0,1,3-.87l15.75,25.34a11.16,11.16,0,0,0,19,0l5.77-9.28a1.65,1.65,0,0,1,3,.87v36.13a5,5,0,0,0,5,5h0a5,5,0,0,0,5-5V165.35a2.77,2.77,0,0,0-4.94-1.73l-21.39,34a2.3,2.3,0,0,1-3.89,0l-21.39-34"/><path class="cls-3" d="M423.52,194.07h7.33a6.07,6.07,0,0,1,6.07,6.07h0a5.3,5.3,0,0,1-5.29,5.3h-15a5.3,5.3,0,0,1-5.29-5.3V181a7.33,7.33,0,0,1,7.33-7.34h20.26a5.3,5.3,0,0,0,5.29-5.3h0a5.3,5.3,0,0,0-5.29-5.3H409.06A8.07,8.07,0,0,0,401,171.1v57.08a8.07,8.07,0,0,0,8.07,8.07h29.89a5.3,5.3,0,0,0,5.29-5.3v-.79a5.3,5.3,0,0,0-5.29-5.3H418.68a7.33,7.33,0,0,1-7.33-7.34v-3.35"/><path class="cls-3" d="M588.3,194.07h7.33a6.07,6.07,0,0,1,6.07,6.07h0a5.3,5.3,0,0,1-5.29,5.3h-15a5.3,5.3,0,0,1-5.29-5.3V181a7.33,7.33,0,0,1,7.33-7.34h20.26a5.3,5.3,0,0,0,5.29-5.3h0a5.3,5.3,0,0,0-5.29-5.3H573.84a8.07,8.07,0,0,0-8.07,8.07v57.08a8.07,8.07,0,0,0,8.07,8.07h29.89A5.3,5.3,0,0,0,609,231v-.79a5.3,5.3,0,0,0-5.29-5.3H583.46a7.33,7.33,0,0,1-7.33-7.34v-3.35"/><path class="cls-3" d="M524.87,226.38h3.72c8.14,0,12.8-8.52,14.74-18.61a70.46,70.46,0,0,0,0-20.61c-1.55-8-6.6-13.64-14.74-13.64h-8.32c-7.33,0-7.33.2-7.33,7.34l0,47.19a8.07,8.07,0,0,0,8.07,8.07l6.93,0h0c14,0,23-11.58,25.39-25.41a83.12,83.12,0,0,0,0-22.88C551,174.1,541.93,162.47,528,162.47H510.65a8.07,8.07,0,0,0-8.07,8.07v65.63"/><path class="cls-3" d="M651.82,237.89l1.29-4.63,17.78-64.17a4.68,4.68,0,0,0-3.4-5.79h0a4.67,4.67,0,0,0-5.61,3.29l-17.42,62.85-1.19,4.3a3.4,3.4,0,0,1-3.31,2.49h0a3.4,3.4,0,0,1-3.25-2.49l-17.85-64.42a5.06,5.06,0,0,1,3.52-6.23h0a5.06,5.06,0,0,1,6.23,3.53l9.51,34.53"/><path class="cls-3" d="M359.92,327.07l3.69,9.51A4.74,4.74,0,0,0,370,339.4h0a4.2,4.2,0,0,0,2-5.34l-24.42-62.88a6.79,6.79,0,0,0-12.87,0l-24.42,62.88a4.2,4.2,0,0,0,2,5.34h0a4.74,4.74,0,0,0,6.35-2.83l5.42-14a5.42,5.42,0,0,1,5-3.59h21.86c2.78,0,4.66-3.06,3.59-5.83l-2.14-5.5-7.81-20.17a3.64,3.64,0,0,0-6.89,0l-6.53,16.85a3.75,3.75,0,0,0-.25,1.39,3.28,3.28,0,0,0,3.23,3.24h8.08"/><path class="cls-3" d="M288.72,317.72v17.36a5.26,5.26,0,0,0,5.26,5.26h0a5.26,5.26,0,0,0,5.26-5.26V271.83a5.26,5.26,0,0,0-5.26-5.26h0a5.26,5.26,0,0,0-5.26,5.26h0a49.31,49.31,0,0,1-1.31,11.46c-1.51,6.33-4.6,15-10.65,18.79a23.63,23.63,0,0,0-11,20.55v12.46a5.26,5.26,0,0,1-5.26,5.26h0a5.26,5.26,0,0,1-5.26-5.26V271.83a5.26,5.26,0,0,1,5.26-5.26h0a5.26,5.26,0,0,1,5.26,5.26v13.26"/><path class="cls-3" d="M488.76,284.43,480,269.15a4.19,4.19,0,0,0-5.74-1.55l-.64.37a4.2,4.2,0,0,0-1.56,5.7l15.43,27.44a4.2,4.2,0,0,1,.54,2.06v32.59a4.2,4.2,0,0,0,4.34,4.2l.89,0a4.2,4.2,0,0,0,4.06-4.2l.31-38.56a19.61,19.61,0,0,1,3-10.28l11-17.46a4.19,4.19,0,0,1,5.79-1.51h0a4.2,4.2,0,0,1,1.48,5.7l-.12.22-11.89,20.61"/><path class="cls-3" d="M402.68,280.82a5.82,5.82,0,0,1,5.8,5.81h0a8,8,0,0,1-8,8h-6.37a2.77,2.77,0,0,1-2.77-2.77V270.05a2.22,2.22,0,0,1,2.22-2.22h10.34c7.26,0,14.25,7,14.25,14.25v5c0,10.16-9.27,18.32-19.33,18.32h-4.7a2.77,2.77,0,0,0-2.77,2.77v27.07a4.54,4.54,0,0,1-4.54,4.54h0a4.54,4.54,0,0,1-4.54-4.54V267.84"/><path class="cls-3" d="M449.25,280.82a5.82,5.82,0,0,1,5.8,5.81h0a8,8,0,0,1-8,8h-6.37a2.77,2.77,0,0,1-2.77-2.77V270.05a2.22,2.22,0,0,1,2.22-2.22h10.34c7.26,0,14.25,7,14.25,14.25v5c0,10.16-9.27,18.32-19.33,18.32h-4.7a2.77,2.77,0,0,0-2.77,2.77v27.07a4.54,4.54,0,0,1-4.54,4.54h0a4.54,4.54,0,0,1-4.54-4.54V267.84"/><path class="cls-3" d="M609.86,317.72v17.36a5.26,5.26,0,0,0,5.26,5.26h0a5.26,5.26,0,0,0,5.26-5.26V271.83a5.26,5.26,0,0,0-5.26-5.26h0a5.26,5.26,0,0,0-5.26,5.26h0a49.31,49.31,0,0,1-1.31,11.46c-1.51,6.33-4.6,15-10.65,18.79a23.63,23.63,0,0,0-11,20.55v12.46a5.26,5.26,0,0,1-5.26,5.26h0a5.26,5.26,0,0,1-5.26-5.26V271.83a5.26,5.26,0,0,1,5.26-5.26h0a5.26,5.26,0,0,1,5.26,5.26v13.26"/><path class="cls-3" d="M689.69,319.78a27.32,27.32,0,1,0-13.31,9.69,4.61,4.61,0,0,1,5.15,1.61h0a4.62,4.62,0,0,1-2.16,7.16,36.62,36.62,0,1,1,16.05-10.81"/><path class="cls-3" d="M735.22,329.71c-5.56,0-11.56-4.51-11.56-10.08V272.22a4.54,4.54,0,0,0-4.54-4.54h0a4.54,4.54,0,0,0-4.54,4.54v48.2a20.5,20.5,0,0,0,20.5,20.51h0a17.18,17.18,0,0,0,17.17-17.18V272a4.37,4.37,0,0,1,4.37-4.37h0A4.37,4.37,0,0,1,761,272v50.39c0,4.94-1.32,10.35-4.54,13.64"/><path class="cls-3" d="M793.11,291.77H801a6.25,6.25,0,0,0,6.25-6.25V282.8a6.25,6.25,0,0,0-6.25-6.25H787.51a5.51,5.51,0,0,0-5.5,5.51v53.08a4.73,4.73,0,0,1-4.64,4.73h0a4.73,4.73,0,0,1-4.81-4.73V276.23a9.58,9.58,0,0,1,9.56-9.58l18.42,0a17.72,17.72,0,0,1,17.75,17.72h0a17.72,17.72,0,0,1-17.7,17.72h-1.86c-4.49,0-7.23,3.84-4.85,7.65l16.91,27.77a4,4,0,0,0,5.83,1.11h0a4,4,0,0,0,1-5.39L804,310.7"/></svg>